<svg width="173" height="173" viewBox="0 0 173 173" fill="none" xmlns="http://www.w3.org/2000/svg">
<circle cx="86.5" cy="86.5" r="86.5" fill="#545BFE"/>
<mask id="mask0_71_2" style="mask-type:luminance" maskUnits="userSpaceOnUse" x="0" y="0" width="173" height="173">
<circle cx="86.5" cy="86.5" r="86.5" fill="white"/>
</mask>
<g mask="url(#mask0_71_2)">
<path fill-rule="evenodd" clip-rule="evenodd" d="M72.2756 10.3799C72.2756 7.83206 70.2101 5.7666 67.6622 5.7666H-11.1489C-13.6967 5.7666 -15.7622 7.83206 -15.7622 10.3799C-15.7622 12.9278 -13.6967 14.9933 -11.1489 14.9933H7.30446C9.85233 14.9933 11.9178 17.0587 11.9178 19.6066C11.9178 22.1545 9.85233 24.2199 7.30446 24.2199H4.99779C2.44992 24.2199 0.38446 26.2854 0.38446 28.8333C0.38446 31.3811 2.44992 33.4466 4.99779 33.4466H3.46001C6.00789 33.4466 8.07335 35.5121 8.07335 38.0599C8.07335 40.6078 6.00789 42.6733 3.46001 42.6733H-0.384429C-2.9323 42.6733 -4.99776 44.7387 -4.99776 47.2866C-4.99776 49.8345 -2.9323 51.8999 -0.384429 51.8999H45.3645C47.9123 51.8999 49.9778 49.8345 49.9778 47.2866C49.9778 44.7387 47.9123 42.6733 45.3645 42.6733H43.4422L43.4422 42.6693C40.9836 42.5685 39.0212 40.5434 39.0212 38.0599C39.0212 35.5765 40.9836 33.5514 43.4422 33.4505L43.4422 33.4466H69.9689C72.5168 33.4466 74.5822 31.3811 74.5822 28.8333C74.5822 26.2854 72.5168 24.2199 69.9689 24.2199H67.2778L67.2778 24.216C64.8191 24.1152 62.8568 22.09 62.8568 19.6066C62.8568 17.1232 64.8191 15.098 67.2778 14.9972L67.2778 14.9933H67.6622C70.2101 14.9933 72.2756 12.9278 72.2756 10.3799ZM37.6756 61.1266C40.2234 61.1266 42.2889 63.1921 42.2889 65.7399C42.2889 68.2878 40.2234 70.3533 37.6756 70.3533C35.1277 70.3533 33.0622 68.2878 33.0622 65.7399C33.0622 63.1921 35.1277 61.1266 37.6756 61.1266ZM23.4511 74.9666C23.4511 72.4187 21.3857 70.3533 18.8378 70.3533H5.38224C2.83436 70.3533 0.768904 72.4187 0.768904 74.9666C0.768904 77.5145 2.83436 79.5799 5.38224 79.5799H18.8378C21.3857 79.5799 23.4511 77.5145 23.4511 74.9666ZM56.1289 130.327C56.1289 132.874 54.0634 134.94 51.5156 134.94H53.4378C50.8899 134.94 48.8245 137.005 48.8245 139.553C48.8245 142.101 50.8899 144.167 53.4378 144.167H64.5867C67.1346 144.167 69.2 142.101 69.2 139.553C69.2 137.005 67.1346 134.94 64.5867 134.94H66.1245V134.936C63.6658 134.835 61.7034 132.81 61.7034 130.327C61.7034 127.843 63.6658 125.818 66.1245 125.717V125.713H76.5045C79.0523 125.713 81.1178 123.648 81.1178 121.1C81.1178 118.552 79.0523 116.487 76.5045 116.487L76.5045 116.483C74.0458 116.382 72.0835 114.357 72.0835 111.873C72.0835 109.39 74.0458 107.365 76.5045 107.264L76.5045 107.26H78.8111C81.359 107.26 83.4245 105.194 83.4245 102.647C83.4245 100.099 81.359 98.0333 78.8111 98.0333H59.2045V98.0293C56.7458 97.9285 54.7834 95.9034 54.7834 93.4199C54.7834 90.9365 56.7458 88.9114 59.2045 88.8105V88.8066H58.4356C60.9834 88.8066 63.0489 86.7411 63.0489 84.1933C63.0489 81.6454 60.9834 79.5799 58.4356 79.5799H39.5978C37.0499 79.5799 34.9845 81.6454 34.9845 84.1933C34.9845 86.7411 37.0499 88.8066 39.5978 88.8066C42.1457 88.8066 44.2111 90.8721 44.2111 93.4199C44.2111 95.9678 42.1457 98.0333 39.5978 98.0333C37.0499 98.0333 34.9845 100.099 34.9845 102.647C34.9845 105.194 37.0499 107.26 39.5978 107.26H43.4422C45.9901 107.26 48.0556 109.325 48.0556 111.873C48.0556 114.421 45.9901 116.487 43.4422 116.487H44.2111C41.6632 116.487 39.5978 118.552 39.5978 121.1C39.5978 123.648 41.6632 125.713 44.2111 125.713H51.5156C54.0634 125.713 56.1289 127.779 56.1289 130.327Z" fill="#4FCDF9"/>
</g>
<mask id="mask1_71_2" style="mask-type:luminance" maskUnits="userSpaceOnUse" x="0" y="0" width="173" height="173">
<circle cx="86.5" cy="86.5" r="86.5" fill="white"/>
</mask>
<g mask="url(#mask1_71_2)">
<path fill-rule="evenodd" clip-rule="evenodd" d="M162.236 19.6065C162.236 17.0586 160.17 14.9932 157.622 14.9932H148.396C145.848 14.9932 143.782 17.0586 143.782 19.6065C143.782 22.1544 145.848 24.2198 148.396 24.2198H157.622C160.17 24.2198 162.236 22.1544 162.236 19.6065ZM253.733 24.2198C256.281 24.2198 258.347 26.2853 258.347 28.8332C258.347 31.381 256.281 33.4465 253.733 33.4465H251.042V33.4504C248.584 33.5513 246.621 35.5764 246.621 38.0598C246.621 40.5433 248.584 42.5684 251.042 42.6692V42.6732H257.193C259.741 42.6732 261.807 44.7386 261.807 47.2865C261.807 49.8344 259.741 51.8998 257.193 51.8998H190.3C187.752 51.8998 185.687 49.8344 185.687 47.2865C185.687 44.7386 187.752 42.6732 190.3 42.6732H188.378C190.926 42.6732 192.991 40.6077 192.991 38.0598C192.991 35.512 190.926 33.4465 188.378 33.4465H172.616C170.068 33.4465 168.002 31.381 168.002 28.8332C168.002 26.2853 170.068 24.2198 172.616 24.2198H253.733ZM149.933 125.713C152.481 125.713 154.547 123.648 154.547 121.1C154.547 118.552 152.481 116.486 149.933 116.486C147.386 116.486 145.32 114.421 145.32 111.873C145.32 109.325 147.386 107.26 149.933 107.26H148.78C151.328 107.26 153.393 105.194 153.393 102.646C153.393 100.099 151.328 98.0332 148.78 98.0332H131.48C128.932 98.0332 126.867 95.9677 126.867 93.4198C126.867 90.872 128.932 88.8065 131.48 88.8065C134.028 88.8065 136.093 86.741 136.093 84.1932C136.093 81.6453 134.028 79.5798 131.48 79.5798H118.409C115.861 79.5798 113.796 77.5144 113.796 74.9665C113.796 72.4186 115.861 70.3532 118.409 70.3532H128.405C130.952 70.3532 133.018 68.2877 133.018 65.7398C133.018 63.192 130.952 61.1265 128.405 61.1265C125.857 61.1265 123.791 59.061 123.791 56.5132C123.791 53.9653 125.857 51.8998 128.405 51.8998H149.933C152.481 51.8998 154.547 53.9653 154.547 56.5132C154.547 59.061 152.481 61.1265 149.933 61.1265L149.933 61.1304C147.475 61.2315 145.512 63.2565 145.512 65.7398C145.512 68.2231 147.475 70.2482 149.933 70.3492L149.933 70.3532H184.918C187.466 70.3532 189.531 72.4186 189.531 74.9665C189.531 77.5144 187.466 79.5798 184.918 79.5798H177.229L177.229 79.5838C174.77 79.6846 172.808 81.7097 172.808 84.1932C172.808 86.6766 174.77 88.7017 177.229 88.8026L177.229 88.8065H181.073C183.621 88.8065 185.687 90.872 185.687 93.4198C185.687 95.9677 183.621 98.0332 181.073 98.0332H175.307L175.306 98.0371C172.848 98.1381 170.886 100.163 170.886 102.646C170.886 105.13 172.848 107.155 175.306 107.256L175.307 107.26H174.538C177.086 107.26 179.151 109.325 179.151 111.873C179.151 114.421 177.086 116.486 174.538 116.486H166.849L166.849 116.49C164.39 116.591 162.428 118.616 162.428 121.1C162.428 123.583 164.39 125.608 166.849 125.709L166.849 125.713H165.311C167.859 125.713 169.925 127.779 169.925 130.326C169.925 132.874 167.859 134.94 165.311 134.94H151.471C148.923 134.94 146.858 132.874 146.858 130.326C146.858 127.779 148.923 125.713 151.471 125.713H149.933ZM184.533 116.486C187.081 116.486 189.147 118.552 189.147 121.1C189.147 123.648 187.081 125.713 184.533 125.713C181.986 125.713 179.92 123.648 179.92 121.1C179.92 118.552 181.986 116.486 184.533 116.486ZM182.227 56.5132C182.227 53.9653 180.161 51.8998 177.613 51.8998H172.231C169.683 51.8998 167.618 53.9653 167.618 56.5132C167.618 59.061 169.683 61.1265 172.231 61.1265H177.613C180.161 61.1265 182.227 59.061 182.227 56.5132ZM142.629 38.0598C142.629 35.512 140.564 33.4465 138.016 33.4465H128.789C126.241 33.4465 124.176 35.512 124.176 38.0598C124.176 40.6077 126.241 42.6732 128.789 42.6732H138.016C140.564 42.6732 142.629 40.6077 142.629 38.0598ZM152.625 33.4465C155.172 33.4465 157.238 35.512 157.238 38.0598C157.238 40.6077 155.172 42.6732 152.625 42.6732H151.471C148.923 42.6732 146.858 40.6077 146.858 38.0598C146.858 35.512 148.923 33.4465 151.471 33.4465H152.625Z" fill="#4FCDF9"/>
</g>
<mask id="mask2_71_2" style="mask-type:luminance" maskUnits="userSpaceOnUse" x="0" y="0" width="173" height="173">
<circle cx="86.5" cy="86.5" r="86.5" fill="white"/>
</mask>
<g mask="url(#mask2_71_2)">
<path fill-rule="evenodd" clip-rule="evenodd" d="M118.025 19.6068C118.025 17.0589 115.959 14.9935 113.411 14.9935H67.2779C64.73 14.9935 62.6646 12.928 62.6646 10.3801C62.6646 7.83227 64.73 5.76681 67.2779 5.76681H86.1157C88.6635 5.76681 90.729 3.70135 90.729 1.15348C90.729 -1.3944 88.6635 -3.45986 86.1157 -3.45986H79.9646C77.4167 -3.45986 75.3512 -5.52532 75.3512 -8.07319C75.3512 -10.6211 77.4167 -12.6865 79.9646 -12.6865H103.8C106.348 -12.6865 108.413 -10.6211 108.413 -8.07319C108.413 -5.52532 106.348 -3.45986 103.8 -3.45986H104.569L104.569 -3.45593C102.11 -3.35523 100.148 -1.33006 100.148 1.15348C100.148 3.63701 102.11 5.66218 104.569 5.76288L104.569 5.76681H166.08C168.628 5.76681 170.693 7.83227 170.693 10.3801C170.693 12.928 168.628 14.9935 166.08 14.9935H139.938L139.938 14.9974C137.479 15.0984 135.517 17.1235 135.517 19.6068C135.517 22.0901 137.479 24.1152 139.938 24.2162L139.938 24.2201H141.091C143.639 24.2201 145.705 26.2856 145.705 28.8335C145.705 31.3814 143.639 33.4468 141.091 33.4468H111.873C109.326 33.4468 107.26 31.3814 107.26 28.8335C107.26 26.2856 109.326 24.2201 111.873 24.2201H113.411C115.959 24.2201 118.025 22.1547 118.025 19.6068ZM158.776 42.6735C161.324 42.6735 163.389 44.7389 163.389 47.2868C163.389 49.8347 161.324 51.9001 158.776 51.9001H134.94C132.392 51.9001 130.327 49.8347 130.327 47.2868C130.327 44.7389 132.392 42.6735 134.94 42.6735H158.776ZM171.847 28.8335C171.847 26.2856 169.781 24.2201 167.233 24.2201H159.545C156.997 24.2201 154.931 26.2856 154.931 28.8335C154.931 31.3813 156.997 33.4468 159.545 33.4468H167.233C169.781 33.4468 171.847 31.3813 171.847 28.8335ZM93.4201 24.2201C95.968 24.2201 98.0334 26.2856 98.0334 28.8335C98.0334 31.3813 95.968 33.4468 93.4201 33.4468H85.7312C83.1833 33.4468 81.1179 31.3813 81.1179 28.8335C81.1179 26.2856 83.1833 24.2201 85.7312 24.2201H93.4201ZM186.84 -8.07319C186.84 -10.6211 184.775 -12.6865 182.227 -12.6865H122.253C119.706 -12.6865 117.64 -10.6211 117.64 -8.07319C117.64 -5.52532 119.706 -3.45986 122.253 -3.45986H182.227C184.775 -3.45986 186.84 -5.52532 186.84 -8.07319Z" fill="white"/>
</g>
<mask id="mask3_71_2" style="mask-type:luminance" maskUnits="userSpaceOnUse" x="0" y="0" width="173" height="173">
<circle cx="86.5" cy="86.5" r="86.5" fill="white"/>
</mask>
<g mask="url(#mask3_71_2)">
<path fill-rule="evenodd" clip-rule="evenodd" d="M32.6777 134.94C35.2255 134.94 37.291 137.005 37.291 139.553C37.291 142.101 35.2255 144.166 32.6777 144.166H31.1399C28.592 144.166 26.5266 146.232 26.5266 148.78C26.5266 151.328 28.592 153.393 31.1399 153.393H60.3577C62.9055 153.393 64.971 151.328 64.971 148.78C64.971 146.232 62.9055 144.166 60.3577 144.166H59.2043L59.204 144.162C56.7455 144.061 54.7833 142.036 54.7833 139.553C54.7833 137.07 56.7455 135.045 59.204 134.944L59.2043 134.94H69.1999C71.7478 134.94 73.8132 132.874 73.8132 130.326C73.8132 127.779 71.7478 125.713 69.1999 125.713H63.8177L63.8178 125.709C61.359 125.608 59.3966 123.583 59.3966 121.1C59.3966 118.616 61.359 116.591 63.8178 116.49L63.8177 116.486H81.8866C84.4344 116.486 86.4999 114.421 86.4999 111.873C86.4999 109.325 84.4344 107.26 81.8866 107.26H36.5221C33.9742 107.26 31.9088 109.325 31.9088 111.873C31.9088 114.421 33.9742 116.486 36.5221 116.486H45.3643C47.9122 116.486 49.9777 118.552 49.9777 121.1C49.9777 123.648 47.9122 125.713 45.3643 125.713H6.53545C3.98758 125.713 1.92212 127.779 1.92212 130.326C1.92212 132.874 3.98758 134.94 6.53545 134.94H32.6777ZM99.9555 130.326C99.9555 127.779 97.89 125.713 95.3421 125.713H87.6532C85.1054 125.713 83.0399 127.779 83.0399 130.326C83.0399 132.874 85.1054 134.94 87.6532 134.94H95.3421C97.89 134.94 99.9555 132.874 99.9555 130.326Z" fill="white"/>
</g>
<mask id="mask4_71_2" style="mask-type:luminance" maskUnits="userSpaceOnUse" x="0" y="0" width="173" height="173">
<circle cx="86.5" cy="86.5" r="86.5" fill="white"/>
</mask>
<g mask="url(#mask4_71_2)">
<path fill-rule="evenodd" clip-rule="evenodd" d="M129.558 171.847C132.106 171.847 134.171 173.912 134.171 176.46C134.171 179.008 132.106 181.073 129.558 181.073H128.02C125.472 181.073 123.407 183.139 123.407 185.687C123.407 188.234 125.472 190.3 128.02 190.3H157.238C159.786 190.3 161.851 188.234 161.851 185.687C161.851 183.139 159.786 181.073 157.238 181.073H156.084L156.084 181.069C153.626 180.968 151.663 178.943 151.663 176.46C151.663 173.977 153.626 171.951 156.084 171.85L156.084 171.847H166.08C168.628 171.847 170.693 169.781 170.693 167.233C170.693 164.685 168.628 162.62 166.08 162.62H160.698L160.698 162.616C158.239 162.515 156.277 160.49 156.277 158.007C156.277 155.523 158.239 153.498 160.698 153.397L160.698 153.393H178.767C181.315 153.393 183.38 151.328 183.38 148.78C183.38 146.232 181.315 144.167 178.767 144.167H133.402C130.854 144.167 128.789 146.232 128.789 148.78C128.789 151.328 130.854 153.393 133.402 153.393H142.244C144.792 153.393 146.858 155.459 146.858 158.007C146.858 160.554 144.792 162.62 142.244 162.62H103.416C100.868 162.62 98.8022 164.685 98.8022 167.233C98.8022 169.781 100.868 171.847 103.416 171.847H129.558ZM196.836 167.233C196.836 164.685 194.77 162.62 192.222 162.62H184.533C181.985 162.62 179.92 164.685 179.92 167.233C179.92 169.781 181.985 171.847 184.533 171.847H192.222C194.77 171.847 196.836 169.781 196.836 167.233Z" fill="white"/>
</g>
<mask id="mask5_71_2" style="mask-type:luminance" maskUnits="userSpaceOnUse" x="0" y="0" width="173" height="173">
<circle cx="86.5" cy="86.5" r="86.5" fill="white"/>
</mask>
<g mask="url(#mask5_71_2)">
<rect opacity="0.0775757" x="86.6858" y="-9.61133" width="96.297" height="192.222" fill="black"/>
</g>
</svg>
